<svg id="f53dcfe8-3263-4a43-b845-d1fd5f909f16" data-name="Layer 1" xmlns="http://www.w3.org/2000/svg" viewBox="0 0 274.5 274.5">
  <rect x="1.5" y="1.5" width="271.5" height="271.5" style="fill: #fff;stroke: #231f20;stroke-miterlimit: 10;stroke-width: 3px"/>
  <g>
    <path d="M94.3,136.66H53.7l-8.9,19.7H39.3l32.2-70h5.1l32.21,70H103.3Zm-1.9-4.3L74,92l-18.3,40.4Z" transform="translate(1.5 1.5)" style="fill: #231f20"/>
    <path d="M131.4,91H106.2V86.35h55.5V91H136.5v65.4h-5.1Z" transform="translate(1.5 1.5)" style="fill: #231f20"/>
    <path d="M166.6,121.36c0-20.4,15.5-35.51,36.3-35.51,9.9,0,18.8,3.2,24.9,9.7l-3.2,3.31c-6-5.9-13.3-8.31-21.5-8.31-17.9,0-31.4,13.21-31.4,30.81s13.5,30.8,31.4,30.8c8.2,0,15.5-2.5,21.5-8.4l3.2,3.3c-6.1,6.5-15,9.8-24.9,9.8C182.1,156.86,166.6,141.76,166.6,121.36Z" transform="translate(1.5 1.5)" style="fill: #231f20"/>
  </g>
</svg>
