<svg id="b6bb840e-e34a-476d-a0e7-dae9c342584e" data-name="Layer 1" xmlns="http://www.w3.org/2000/svg" viewBox="0 0 274.5 274.5">
  <rect x="1.5" y="1.5" width="271.5" height="271.5" style="fill: #fff;stroke: #231f20;stroke-miterlimit: 10;stroke-width: 3px"/>
  <g>
    <path d="M12.42,140.7c0-9.36,6.66-15.9,15.84-15.9,5,0,9.3,1.92,11.88,5.76l-2.22,1.62a11.43,11.43,0,0,0-9.66-4.68c-7.38,0-12.78,5.28-12.78,13.2s5.4,13.2,12.78,13.2a11.43,11.43,0,0,0,9.66-4.68l2.22,1.62c-2.58,3.78-6.9,5.76-11.88,5.76C19.08,156.6,12.42,150,12.42,140.7Z" transform="translate(1.5 1.5)" style="fill: #231f20"/>
    <path d="M76.62,138.06v18.3h-3V138.3c0-7.08-3.78-10.8-10.14-10.8-7.38,0-11.88,4.74-11.88,12.18v16.68h-3V111.84h3v19.74c2.16-4.26,6.48-6.78,12.3-6.78C71.52,124.8,76.62,129.3,76.62,138.06Z" transform="translate(1.5 1.5)" style="fill: #231f20"/>
    <path d="M115.5,141.42H88.56c.3,7.44,5.76,12.48,13.26,12.48a12.63,12.63,0,0,0,10-4.38l1.74,2a15,15,0,0,1-11.82,5.1c-9.48,0-16.14-6.6-16.14-15.9s6.42-15.9,15-15.9,14.94,6.48,14.94,15.78C115.56,140.82,115.5,141.12,115.5,141.42Zm-26.88-2.34h24c-.42-6.78-5.34-11.64-12-11.64S89.1,132.24,88.62,139.08Z" transform="translate(1.5 1.5)" style="fill: #231f20"/>
    <path d="M128.4,120.48V125h10v2.58h-10v28.74h-3V127.62H119.7V125h5.76v-4.8c0-5.22,3.12-8.64,8.7-8.64a9.36,9.36,0,0,1,6.18,2l-1.2,2.28a7.2,7.2,0,0,0-4.86-1.74C130.38,114.18,128.4,116.34,128.4,120.48Z" transform="translate(1.5 1.5)" style="fill: #231f20"/>
    <path d="M141.3,138.9h15.42v2.7H141.3Z" transform="translate(1.5 1.5)" style="fill: #231f20"/>
    <path d="M198,140.7c0,9.36-6.66,15.9-15.48,15.9A14,14,0,0,1,169.68,149v7.38H166.8V111.84h3v20.34a14,14,0,0,1,12.72-7.38C191.34,124.8,198,131.28,198,140.7Zm-3,0c0-7.86-5.46-13.2-12.66-13.2s-12.6,5.34-12.6,13.2,5.4,13.2,12.6,13.2S195,148.56,195,140.7Z" transform="translate(1.5 1.5)" style="fill: #231f20"/>
    <path d="M203.88,140.7c0-9.3,6.66-15.9,15.66-15.9s15.66,6.6,15.66,15.9-6.66,15.9-15.66,15.9S203.88,150,203.88,140.7Zm28.26,0c0-7.86-5.4-13.2-12.6-13.2s-12.6,5.34-12.6,13.2,5.4,13.2,12.6,13.2S232.14,148.56,232.14,140.7Z" transform="translate(1.5 1.5)" style="fill: #231f20"/>
    <path d="M260,154.38a9.5,9.5,0,0,1-6.42,2.22c-5.52,0-8.52-3.24-8.52-8.52V127.62h-5.76V125h5.76V118.2h3V125h10v2.58h-10v20.16c0,4,2,6.24,5.82,6.24a7.2,7.2,0,0,0,4.86-1.74Z" transform="translate(1.5 1.5)" style="fill: #231f20"/>
  </g>
</svg>
