<svg id="a11bb525-e80a-45d6-81e8-131ed59a5845" data-name="Layer 1" xmlns="http://www.w3.org/2000/svg" viewBox="0 0 274.5 274.5">
  <rect x="1.5" y="1.5" width="271.5" height="271.5" style="fill: #fff;stroke: #231f20;stroke-miterlimit: 10;stroke-width: 3px"/>
  <g>
    <path d="M23.48,94.35a3.71,3.71,0,0,1,3.69-3.69,3.65,3.65,0,1,1-3.69,3.69Zm1.44,15h4.5v47h-4.5Z" transform="translate(1.5 1.5)" style="fill: #231f20"/>
    <path d="M90.43,128.91v27.45h-4.5V129.27c0-10.62-5.67-16.2-15.2-16.2-11.07,0-17.82,7.11-17.82,18.27v25h-4.5v-47h4.32v10.17C55.88,113,62.45,109,71.35,109,82.78,109,90.43,115.77,90.43,128.91Z" transform="translate(1.5 1.5)" style="fill: #231f20"/>
    <path d="M105,130.17h23.13v4.05H105Z" transform="translate(1.5 1.5)" style="fill: #231f20"/>
    <path d="M185.92,89.58v66.78h-4.41V145.29c-3.69,7.29-10.8,11.43-19.26,11.43-13.23,0-23.22-9.81-23.22-23.85S149,109,162.25,109a21.06,21.06,0,0,1,19.17,11.25V89.58Zm-4.5,43.29c0-11.79-8.1-19.8-18.9-19.8s-18.9,8-18.9,19.8,8.1,19.8,18.9,19.8S181.42,144.66,181.42,132.87Z" transform="translate(1.5 1.5)" style="fill: #231f20"/>
    <path d="M251.71,132.87c0,14-10,23.85-23.22,23.85-8.46,0-15.57-4.23-19.26-11.43v11.07h-4.32V89.58h4.5v30.51c3.78-7,10.8-11.07,19.08-11.07C241.72,109,251.71,118.74,251.71,132.87Zm-4.5,0c0-11.79-8.19-19.8-19-19.8s-18.9,8-18.9,19.8,8.1,19.8,18.9,19.8S247.21,144.66,247.21,132.87Z" transform="translate(1.5 1.5)" style="fill: #231f20"/>
  </g>
</svg>
